<?xml version="1.0" encoding="UTF-8"?>
<svg width="155px" height="55px" viewBox="0 0 155 55" version="1.1" xmlns="http://www.w3.org/2000/svg" xmlns:xlink="http://www.w3.org/1999/xlink">
    <!-- Generator: Sketch 47.1 (45422) - http://www.bohemiancoding.com/sketch -->
    <title>Artboard</title>
    <desc>Created with Sketch.</desc>
    <defs></defs>
    <g id="Page-1" stroke="none" stroke-width="1" fill="none" fill-rule="evenodd">
        <g id="Artboard">
            <path d="M58.646,22.978 C59.8193392,22.978 60.7176635,23.3263299 61.341,24.023 C61.9643364,24.7196702 62.276,25.8453256 62.276,27.4 L62.276,32.812 C62.276,33.2373355 62.1476679,33.5636655 61.891,33.791 C61.634332,34.0183345 61.3006687,34.132 60.89,34.132 C60.493998,34.132 60.1676679,34.0183345 59.911,33.791 C59.654332,33.5636655 59.526,33.2373355 59.526,32.812 L59.526,27.4 C59.526,26.5933293 59.3830014,26.0176684 59.097,25.673 C58.8109986,25.3283316 58.3746696,25.156 57.788,25.156 C57.0693297,25.156 56.4973355,25.4016642 56.072,25.893 C55.6466645,26.3843358 55.434,27.0553291 55.434,27.906 L55.434,32.812 C55.434,33.2373355 55.305668,33.5636655 55.049,33.791 C54.792332,34.0183345 54.466002,34.132 54.07,34.132 C53.673998,34.132 53.3440013,34.0183345 53.08,33.791 C52.8159987,33.5636655 52.684,33.2373355 52.684,32.812 L52.684,27.4 C52.684,26.5933293 52.5410014,26.0176684 52.255,25.673 C51.9689986,25.3283316 51.5326696,25.156 50.946,25.156 C50.2273297,25.156 49.6590021,25.4016642 49.241,25.893 C48.8229979,26.3843358 48.614,27.0553291 48.614,27.906 L48.614,32.812 C48.614,33.2373355 48.4820013,33.5636655 48.218,33.791 C47.9539987,34.0183345 47.624002,34.132 47.228,34.132 C46.831998,34.132 46.5056679,34.0183345 46.249,33.791 C45.992332,33.5636655 45.864,33.2373355 45.864,32.812 L45.864,24.298 C45.864,23.8873313 45.9959987,23.5720011 46.26,23.352 C46.5240013,23.1319989 46.853998,23.022 47.25,23.022 C47.6313352,23.022 47.9429988,23.1283323 48.185,23.341 C48.4270012,23.5536677 48.548,23.857998 48.548,24.254 L48.548,24.782 C48.885335,24.1953304 49.3363305,23.7480015 49.901,23.44 C50.4656695,23.1319985 51.114663,22.978 51.848,22.978 C53.4613414,22.978 54.5393306,23.6526599 55.082,25.002 C55.4046683,24.3859969 55.8813302,23.8946685 56.512,23.528 C57.1426698,23.1613315 57.853996,22.978 58.646,22.978 Z M66.434,34.132 C66.037998,34.132 65.7116679,34.0183345 65.455,33.791 C65.1983321,33.5636655 65.07,33.2373355 65.07,32.812 L65.07,24.32 C65.07,23.8946645 65.1983321,23.5720011 65.455,23.352 C65.7116679,23.1319989 66.037998,23.022 66.434,23.022 C66.830002,23.022 67.1599987,23.1319989 67.424,23.352 C67.6880013,23.5720011 67.82,23.8946645 67.82,24.32 L67.82,32.812 C67.82,33.2373355 67.6880013,33.5636655 67.424,33.791 C67.1599987,34.0183345 66.830002,34.132 66.434,34.132 Z M66.434,21.064 C65.9353308,21.064 65.5393348,20.9283347 65.246,20.657 C64.9526652,20.3856653 64.806,20.0300022 64.806,19.59 C64.806,19.1499978 64.9526652,18.7980013 65.246,18.534 C65.5393348,18.2699987 65.9353308,18.138 66.434,18.138 C66.9180024,18.138 67.3103318,18.2699987 67.611,18.534 C67.9116682,18.7980013 68.062,19.1499978 68.062,19.59 C68.062,20.0300022 67.9153348,20.3856653 67.622,20.657 C67.3286652,20.9283347 66.9326692,21.064 66.434,21.064 Z M79.986,31.976 C80.2500013,32.2400013 80.382,32.540665 80.382,32.878 C80.382,33.2006683 80.2573346,33.4903321 80.008,33.747 C79.7586654,34.003668 79.465335,34.132 79.128,34.132 C78.7613315,34.132 78.4460013,33.9780015 78.182,33.67 L75.08,30.238 L71.978,33.67 C71.6993319,33.9633348 71.3840018,34.11 71.032,34.11 C70.7093317,34.11 70.4233346,33.9853346 70.174,33.736 C69.9246654,33.4866654 69.8,33.2006683 69.8,32.878 C69.8,32.540665 69.9319987,32.2400013 70.196,31.976 L73.408,28.478 L70.372,25.178 C70.1079987,24.9139987 69.976,24.613335 69.976,24.276 C69.976,23.938665 70.1006654,23.6490012 70.35,23.407 C70.5993346,23.1649988 70.8853317,23.044 71.208,23.044 C71.5600018,23.044 71.8753319,23.1906652 72.154,23.484 L75.08,26.696 L78.006,23.484 C78.2846681,23.1906652 78.5999982,23.044 78.952,23.044 C79.289335,23.044 79.5789988,23.1649988 79.821,23.407 C80.0630012,23.6490012 80.184,23.938665 80.184,24.276 C80.184,24.613335 80.0520013,24.9139987 79.788,25.178 L76.752,28.478 L79.986,31.976 Z M83.66,26.3 C83.1906643,26.3 82.8020015,26.1423349 82.494,25.827 C82.1859985,25.5116651 82.032,25.1193357 82.032,24.65 C82.032,24.1806643 82.1859985,23.7920015 82.494,23.484 C82.8020015,23.1759985 83.1906643,23.022 83.66,23.022 C84.1293357,23.022 84.5179985,23.1759985 84.826,23.484 C85.1340015,23.7920015 85.288,24.1806643 85.288,24.65 C85.288,25.1193357 85.1340015,25.5116651 84.826,25.827 C84.5179985,26.1423349 84.1293357,26.3 83.66,26.3 Z M83.66,34.132 C83.1906643,34.132 82.8020015,33.9743349 82.494,33.659 C82.1859985,33.3436651 82.032,32.9513357 82.032,32.482 C82.032,32.0126643 82.1859985,31.6203349 82.494,31.305 C82.8020015,30.9896651 83.1906643,30.832 83.66,30.832 C84.1293357,30.832 84.5179985,30.9896651 84.826,31.305 C85.1340015,31.6203349 85.288,32.0126643 85.288,32.482 C85.288,32.9513357 85.1340015,33.3436651 84.826,33.659 C84.5179985,33.9743349 84.1293357,34.132 83.66,34.132 Z M92.482,22.978 C93.9780075,22.978 95.0889964,23.3483296 95.815,24.089 C96.5410036,24.8296704 96.904,25.9553258 96.904,27.466 L96.904,32.834 C96.904,33.230002 96.7866678,33.5416655 96.552,33.769 C96.3173322,33.9963345 95.9946687,34.11 95.584,34.11 C95.2026648,34.11 94.8910012,33.9926678 94.649,33.758 C94.4069988,33.5233322 94.286,33.2153352 94.286,32.834 L94.286,32.35 C94.0366654,32.9220029 93.644336,33.3693317 93.109,33.692 C92.573664,34.0146683 91.9540035,34.176 91.25,34.176 C90.5313297,34.176 89.8786696,34.0293348 89.292,33.736 C88.7053304,33.4426652 88.243335,33.0393359 87.906,32.526 C87.568665,32.0126641 87.4,31.4406698 87.4,30.81 C87.4,30.017996 87.6016646,29.3946689 88.005,28.94 C88.4083353,28.4853311 89.0646621,28.1553344 89.974,27.95 C90.8833379,27.7446656 92.1373253,27.642 93.736,27.642 L94.286,27.642 L94.286,27.136 C94.286,26.4173297 94.1320015,25.8930017 93.824,25.563 C93.5159985,25.2329984 93.0173368,25.068 92.328,25.068 C91.9026645,25.068 91.4700022,25.1303327 91.03,25.255 C90.5899978,25.3796673 90.0693363,25.5593322 89.468,25.794 C89.0866648,25.9846676 88.8080009,26.08 88.632,26.08 C88.3679987,26.08 88.1516675,25.9846676 87.983,25.794 C87.8143325,25.6033324 87.73,25.3540015 87.73,25.046 C87.73,24.7966654 87.7923327,24.5803342 87.917,24.397 C88.0416673,24.2136658 88.2506652,24.0413341 88.544,23.88 C89.0573359,23.6013319 89.6696631,23.3813341 90.381,23.22 C91.0923369,23.0586659 91.7926632,22.978 92.482,22.978 Z M91.8,32.196 C92.533337,32.196 93.1309977,31.9503358 93.593,31.459 C94.0550023,30.9676642 94.286,30.3333372 94.286,29.556 L94.286,29.094 L93.89,29.094 C92.9073284,29.094 92.1446694,29.1379996 91.602,29.226 C91.0593306,29.3140004 90.6706678,29.4679989 90.436,29.688 C90.2013322,29.9080011 90.084,30.2086648 90.084,30.59 C90.084,31.0593357 90.2489983,31.4443318 90.579,31.745 C90.9090016,32.0456682 91.3159976,32.196 91.8,32.196 Z M105.946,22.978 C107.236673,22.978 108.19733,23.344663 108.828,24.078 C109.45867,24.811337 109.774,25.9186593 109.774,27.4 L109.774,32.812 C109.774,33.2226687 109.653001,33.5453322 109.411,33.78 C109.168999,34.0146678 108.835335,34.132 108.41,34.132 C107.984665,34.132 107.647335,34.0146678 107.398,33.78 C107.148665,33.5453322 107.024,33.2226687 107.024,32.812 L107.024,27.554 C107.024,26.7179958 106.866335,26.1093352 106.551,25.728 C106.235665,25.3466648 105.74067,25.156 105.066,25.156 C104.273996,25.156 103.639669,25.4053308 103.163,25.904 C102.686331,26.4026692 102.448,27.0699958 102.448,27.906 L102.448,32.812 C102.448,33.2226687 102.323335,33.5453322 102.074,33.78 C101.824665,34.0146678 101.487335,34.132 101.062,34.132 C100.636665,34.132 100.303001,34.0146678 100.061,33.78 C99.8189988,33.5453322 99.698,33.2226687 99.698,32.812 L99.698,24.298 C99.698,23.9166648 99.8226654,23.6086678 100.072,23.374 C100.321335,23.1393322 100.658665,23.022 101.084,23.022 C101.465335,23.022 101.776999,23.1356655 102.019,23.363 C102.261001,23.5903345 102.382,23.8873315 102.382,24.254 L102.382,24.848 C102.748668,24.2466637 103.239997,23.7846683 103.856,23.462 C104.472003,23.1393317 105.168663,22.978 105.946,22.978 Z M117.232,22.978 C118.728007,22.978 119.838996,23.3483296 120.565,24.089 C121.291004,24.8296704 121.654,25.9553258 121.654,27.466 L121.654,32.834 C121.654,33.230002 121.536668,33.5416655 121.302,33.769 C121.067332,33.9963345 120.744669,34.11 120.334,34.11 C119.952665,34.11 119.641001,33.9926678 119.399,33.758 C119.156999,33.5233322 119.036,33.2153352 119.036,32.834 L119.036,32.35 C118.786665,32.9220029 118.394336,33.3693317 117.859,33.692 C117.323664,34.0146683 116.704004,34.176 116,34.176 C115.28133,34.176 114.62867,34.0293348 114.042,33.736 C113.45533,33.4426652 112.993335,33.0393359 112.656,32.526 C112.318665,32.0126641 112.15,31.4406698 112.15,30.81 C112.15,30.017996 112.351665,29.3946689 112.755,28.94 C113.158335,28.4853311 113.814662,28.1553344 114.724,27.95 C115.633338,27.7446656 116.887325,27.642 118.486,27.642 L119.036,27.642 L119.036,27.136 C119.036,26.4173297 118.882002,25.8930017 118.574,25.563 C118.265998,25.2329984 117.767337,25.068 117.078,25.068 C116.652665,25.068 116.220002,25.1303327 115.78,25.255 C115.339998,25.3796673 114.819336,25.5593322 114.218,25.794 C113.836665,25.9846676 113.558001,26.08 113.382,26.08 C113.117999,26.08 112.901668,25.9846676 112.733,25.794 C112.564332,25.6033324 112.48,25.3540015 112.48,25.046 C112.48,24.7966654 112.542333,24.5803342 112.667,24.397 C112.791667,24.2136658 113.000665,24.0413341 113.294,23.88 C113.807336,23.6013319 114.419663,23.3813341 115.131,23.22 C115.842337,23.0586659 116.542663,22.978 117.232,22.978 Z M116.55,32.196 C117.283337,32.196 117.880998,31.9503358 118.343,31.459 C118.805002,30.9676642 119.036,30.3333372 119.036,29.556 L119.036,29.094 L118.64,29.094 C117.657328,29.094 116.894669,29.1379996 116.352,29.226 C115.809331,29.3140004 115.420668,29.4679989 115.186,29.688 C114.951332,29.9080011 114.834,30.2086648 114.834,30.59 C114.834,31.0593357 114.998998,31.4443318 115.329,31.745 C115.659002,32.0456682 116.065998,32.196 116.55,32.196 Z M125.812,34.132 C125.415998,34.132 125.089668,34.0183345 124.833,33.791 C124.576332,33.5636655 124.448,33.2373355 124.448,32.812 L124.448,19.678 C124.448,19.2526645 124.576332,18.9300011 124.833,18.71 C125.089668,18.4899989 125.415998,18.38 125.812,18.38 C126.208002,18.38 126.537999,18.4899989 126.802,18.71 C127.066001,18.9300011 127.198,19.2526645 127.198,19.678 L127.198,32.812 C127.198,33.2373355 127.066001,33.5636655 126.802,33.791 C126.537999,34.0183345 126.208002,34.132 125.812,34.132 Z M134.942,34.176 C133.841994,34.176 132.877671,33.9486689 132.049,33.494 C131.220329,33.0393311 130.578669,32.3866709 130.124,31.536 C129.669331,30.6853291 129.442,29.695339 129.442,28.566 C129.442,27.436661 129.669331,26.4503376 130.124,25.607 C130.578669,24.7636624 131.220329,24.1146689 132.049,23.66 C132.877671,23.2053311 133.841994,22.978 134.942,22.978 C136.042005,22.978 137.006329,23.2053311 137.835,23.66 C138.663671,24.1146689 139.301664,24.7636624 139.749,25.607 C140.196336,26.4503376 140.42,27.436661 140.42,28.566 C140.42,29.695339 140.196336,30.6853291 139.749,31.536 C139.301664,32.3866709 138.663671,33.0393311 137.835,33.494 C137.006329,33.9486689 136.042005,34.176 134.942,34.176 Z M134.92,32.042 C135.814671,32.042 136.496664,31.7486696 136.966,31.162 C137.435336,30.5753304 137.67,29.7100057 137.67,28.566 C137.67,27.436661 137.435336,26.575003 136.966,25.981 C136.496664,25.386997 135.822004,25.09 134.942,25.09 C134.061996,25.09 133.383669,25.386997 132.907,25.981 C132.430331,26.575003 132.192,27.436661 132.192,28.566 C132.192,29.7100057 132.426664,30.5753304 132.896,31.162 C133.365336,31.7486696 134.039996,32.042 134.92,32.042 Z M151.794,23.022 C152.204669,23.022 152.534665,23.1393322 152.784,23.374 C153.033335,23.6086678 153.158,23.923998 153.158,24.32 L153.158,33.01 C153.158,34.6966751 152.688671,35.9726623 151.75,36.838 C150.811329,37.7033377 149.425342,38.136 147.592,38.136 C145.993325,38.136 144.658672,37.8353363 143.588,37.234 C143.045331,36.9113317 142.774,36.5226689 142.774,36.068 C142.774,35.7453317 142.850999,35.4886676 143.005,35.298 C143.159001,35.1073324 143.360665,35.012 143.61,35.012 C143.742001,35.012 143.903332,35.0449997 144.094,35.111 C144.284668,35.1770003 144.482666,35.2539996 144.688,35.342 C145.216003,35.5620011 145.688998,35.7306661 146.107,35.848 C146.525002,35.9653339 147.005331,36.024 147.548,36.024 C149.469343,36.024 150.43,35.0853427 150.43,33.208 L150.43,31.8 C150.107332,32.4013363 149.638003,32.8669984 149.022,33.197 C148.405997,33.5270017 147.702004,33.692 146.91,33.692 C145.971329,33.692 145.139004,33.4683356 144.413,33.021 C143.686996,32.5736644 143.118669,31.9466707 142.708,31.14 C142.297331,30.3333293 142.092,29.4020053 142.092,28.346 C142.092,27.2899947 142.293665,26.3550041 142.697,25.541 C143.100335,24.7269959 143.668663,24.0963356 144.402,23.649 C145.135337,23.2016644 145.971329,22.978 146.91,22.978 C147.702004,22.978 148.405997,23.1429983 149.022,23.473 C149.638003,23.8030016 150.107332,24.2686637 150.43,24.87 L150.43,24.298 C150.43,23.9166648 150.554665,23.6086678 150.804,23.374 C151.053335,23.1393322 151.383331,23.022 151.794,23.022 Z M147.636,31.558 C148.516004,31.558 149.201664,31.2720029 149.693,30.7 C150.184336,30.1279971 150.43,29.3433383 150.43,28.346 C150.43,27.3339949 150.184336,26.5420029 149.693,25.97 C149.201664,25.3979971 148.516004,25.112 147.636,25.112 C146.770662,25.112 146.088669,25.3979971 145.59,25.97 C145.091331,26.5420029 144.842,27.3339949 144.842,28.346 C144.842,29.3433383 145.091331,30.1279971 145.59,30.7 C146.088669,31.2720029 146.770662,31.558 147.636,31.558 Z" id="mix:analog" fill="#5A6F7E"></path>
            <g id="Distopik-Logo" transform="translate(3.000000, 9.000000)">
                <path d="M32.0929716,18.6127292 C32.0929716,19.9197806 32.0514579,21.2674982 31.9670915,22.6564032 C31.8832606,24.0450476 31.6427491,25.3857267 31.2460927,26.67818 C31.1850274,26.8559641 31.0286146,27.1570499 30.7771221,27.5803948 C30.525094,28.0037398 30.2580673,28.4343837 29.9760422,28.8723268 C29.6934814,29.3107912 29.4414532,29.7038972 29.2202255,30.0534696 C28.9989978,30.4022599 28.8883839,30.5990736 28.8883839,30.6436499 C29.1176466,30.6436499 29.3308393,30.5954241 29.5295693,30.4989723 C29.7277636,30.4022599 29.9109594,30.2836503 30.0786211,30.1423616 C30.2465506,30.0013335 30.4032312,29.8451859 30.5478595,29.6744403 C30.6927556,29.5036946 30.8341699,29.3441583 30.9715668,29.1953098 C31.7040822,28.3931962 32.325716,27.5837837 32.8370038,26.7670721 C33.3482915,25.9500998 33.7639639,25.1036706 34.0845566,24.2275238 C34.4051493,23.3505951 34.6376258,22.4374317 34.7827898,21.4867304 C34.9276859,20.536029 35,19.5258926 35,18.4568424 C35,17.0752364 34.8285887,15.6978013 34.4852305,14.323755 C34.1418722,12.9499694 33.5427362,11.6835842 32.6880902,10.5251206 C32.5509612,10.3322171 32.371515,10.0944766 32.1502873,9.81189906 C31.9290596,9.53010357 31.7115815,9.25534645 31.497853,8.98788839 C31.2841246,8.720691 31.097447,8.49415976 30.9370167,8.30829465 C30.7771221,8.12269022 30.6895417,8.02988801 30.6740075,8.02988801 L30.0558555,8.02988801 C30.0558555,8.2079327 30.1284375,8.48998887 30.2733336,8.87657787 C30.4184976,9.2626455 30.5789278,9.67478118 30.7540887,10.1132456 C30.9295175,10.5511886 31.097447,10.963585 31.2578772,11.3496526 C31.4180397,11.7359809 31.5133872,12.0177764 31.5439198,12.1960818 C31.6507841,12.7753136 31.7421141,13.3175288 31.8184457,13.8224666 C31.8947773,14.3276652 31.952093,14.8286929 31.9901248,15.3265924 C32.0284246,15.8242312 32.0546719,16.3364682 32.0702061,16.8638246 C32.0854724,17.391181 32.0929716,17.9740623 32.0929716,18.6127292 Z M17.7228131,15.2595975 C17.7228131,15.1258685 17.7228131,14.9587724 17.7228131,14.7585699 C17.7228131,14.5354275 17.7287053,14.3232336 17.7396864,14.1235525 C17.7506674,13.9230893 17.7568275,13.7445232 17.7568275,13.588897 C17.7568275,13.4327495 17.7568275,13.354806 17.7568275,13.354806 L18.1001858,13.1877099 C18.1920515,13.2544441 18.3806039,13.3490711 18.6669143,13.4715909 C18.9529569,13.5943713 19.2510519,13.7281003 19.5595922,13.8725173 C19.8681325,14.0169342 20.1608709,14.1519666 20.4351289,14.2734437 C20.7091192,14.3959635 20.9089205,14.4715608 21.018463,14.5244789 C21.0921163,14.5599314 21.25335,14.6303151 21.5166271,14.7082586 C21.7796363,14.786202 21.9572077,14.8365133 22.0485377,14.8586711 L22.2204847,15.5270556 L22.2204847,25.8870151 L21.8771264,25.8870151 L18.2718649,24.0489578 C18.2274051,24.0262786 18.1633937,23.9764886 18.0830446,23.8985452 C18.0032312,23.8206018 17.95154,23.7596026 17.9287745,23.7147655 C17.9057411,23.7147655 17.9003845,23.6920863 17.9116333,23.6477707 C17.9226144,23.6039764 17.9287745,23.5698272 17.9287745,23.5474087 C17.9287745,23.4139404 17.9167221,23.0844404 17.8944922,22.5615156 C17.8719945,22.03833 17.8478898,21.4752604 17.8256599,20.8738708 C17.8031621,20.2732632 17.7849497,19.7094116 17.7739686,19.186226 C17.7629876,18.6633012 17.7568275,18.3343226 17.7568275,18.2003329 C17.7568275,18.1338594 17.7568275,17.9777118 17.7568275,17.7326723 C17.7568275,17.4878934 17.7506674,17.2032304 17.7396864,16.8802474 C17.7287053,16.5580465 17.7228131,16.2512257 17.7228131,15.9616098 C17.7228131,15.6495754 17.7228131,15.4154844 17.7228131,15.2595975 Z M12.6067217,27.056688 C13.8885567,27.4351959 15.0273705,27.86975 16.023163,28.3598292 C17.0186876,28.8499083 18.0640287,29.4627678 19.1305283,30.2315143 C19.2995291,30.3535127 19.4623699,30.4319775 19.6452979,30.4319775 C19.7824269,30.4319775 19.9262517,30.3871404 20.0746296,30.2985091 C20.2232753,30.2098778 20.3665644,30.1089945 20.5036935,29.9974233 C20.6410903,29.8861128 20.7733984,29.7742809 20.8984751,29.663231 C21.0243553,29.5524419 21.1164888,29.4562508 21.1906778,29.3960336 C21.2530822,29.345201 21.3679813,29.2784668 21.5166271,29.1788869 C21.6647371,29.0790463 21.8262387,28.972428 21.99765,28.8613782 C22.1685256,28.7503284 22.3238671,28.648663 22.4607283,28.560553 C22.5975895,28.471661 22.6913301,28.4174395 22.7352542,28.3931962 C23.423042,28.0172951 24.1151151,27.7297647 24.8128126,27.5410321 C25.5105102,27.3522995 26.2494535,27.1348921 27.0275001,26.8893312 C27.0505335,26.8893312 27.1016891,26.8669126 27.1820381,26.8228577 C27.2621193,26.7782813 27.3250594,26.7446535 27.3705905,26.722235 L27.3705905,26.2212074 C27.3705905,25.8645966 27.3475571,25.5687244 27.3022938,25.3354154 C27.2570305,25.1021065 27.164897,24.7840764 27.0275001,24.3828893 L27.0275001,13.8558337 C27.0732991,13.7890995 27.1598082,13.627217 27.2851527,13.3717503 C27.4104972,13.1157621 27.4964707,12.9424097 27.5428053,12.8535177 L27.5428053,12.6864216 C27.5428053,12.4856977 27.4680807,12.3240758 27.319435,12.2015561 C27.1707892,12.0790363 26.9988423,11.9732001 26.8043976,11.8840474 C26.6094173,11.7951554 26.4034559,11.7281605 26.1862456,11.6835842 C25.9690354,11.6392685 25.7911962,11.5834829 25.654335,11.5167487 C25.6088038,11.4945909 25.4877446,11.4437582 25.2935678,11.3663361 C25.0996587,11.2886534 24.8985183,11.2047143 24.6922891,11.1155616 C24.4865955,11.0266696 24.2913474,10.9367349 24.1086872,10.8481036 C23.9262949,10.7597329 23.8127349,10.6989944 23.7655968,10.6810074 C23.6989071,10.6554608 23.5253531,10.597329 23.2505594,10.4972278 C22.9763014,10.3971265 22.6832952,10.2910296 22.3752905,10.1799797 C22.0662145,10.0691906 21.7796363,9.9680466 21.5166271,9.87915459 C21.25335,9.7900019 21.0945268,9.70971235 21.018463,9.6784307 C20.1324809,9.30904661 19.198825,8.92089353 18.2375826,8.47539077 C17.2763402,8.02988801 16.3721457,7.59376974 15.5247311,7.17224957 C15.3886734,7.10447267 15.1698561,6.98820923 14.8728325,6.82137379 C14.5752732,6.65453835 14.4009158,6.48796358 14.3232451,6.33650829 C14.287088,6.26534254 14.2375394,6.15872427 14.2032572,6.00257673 C14.1689749,5.84668986 14.1226403,5.6960166 14.0658603,5.55133899 C14.0088125,5.40692207 13.93382,5.27788528 13.8427578,5.16683544 C13.7516955,5.0557856 13.6252797,5 13.4648495,5 C13.1672902,5 12.8975852,5.1673568 12.6578772,5.50128836 C12.4181693,5.83443788 12.216761,6.23119341 12.0571342,6.68738407 C11.8972396,7.14383541 11.7710916,7.59533382 11.6794937,8.04083658 C11.5878958,8.48660003 11.5420969,8.80984369 11.5420969,9.0103069 C11.5420969,9.52254384 11.7204717,9.93520087 12.0742753,10.2467139 C12.4288825,10.5579663 12.8413409,10.8040486 13.2931703,11.014939 C13.4134261,11.0709853 13.6078708,11.1770822 13.8941812,11.2993413 C14.1802238,11.4218611 14.4895676,11.5555901 14.8214091,11.7002677 C15.1532507,11.8454667 15.4679511,11.978935 15.7652426,12.1014548 C16.0628018,12.2239746 16.2690311,12.307653 16.3833945,12.3522293 L16.3833945,12.5190648 C16.3608968,12.5414833 16.3317033,12.5756324 16.2976889,12.6194267 C16.2639423,12.6634817 16.2347488,12.6864216 16.2117154,12.6864216 L14.1515659,13.6887376 C13.9964923,13.7640742 13.825081,13.8117787 13.6536697,13.8558337 C13.4822584,13.899628 13.3271848,13.956717 13.1903236,14.0229298 C13.0531945,14.0891427 12.9441877,14.1793381 12.8641064,14.2903879 C12.7837574,14.4014378 12.7441185,14.557846 12.7441185,14.7585699 C12.7441185,15.2708068 12.8011664,15.7830437 12.9155298,16.2955414 C13.0301611,16.808039 13.1214912,17.3322672 13.1214912,17.8664013 L13.1214912,24.7173423 C13.1214912,25.1182687 13.0012355,25.4636702 12.8298242,25.7530254 C12.6578772,26.0426413 12.5724394,26.3661456 12.5724394,26.722235 C12.5724394,26.7670721 12.5785995,26.8285926 12.5895805,26.9062754 C12.6005616,26.9834368 12.6067217,27.0342694 12.6067217,27.056688 Z M4,19.926819 C4,20.8183459 4.0950797,21.7096121 4.28604259,22.6006176 C4.47673766,23.4916231 4.74831742,24.3581247 5.09863925,25.1964728 C5.44869325,26.0348209 5.87400752,26.842148 6.36922545,27.6137619 C6.86417556,28.3851152 7.4180483,29.1064178 8.02870102,29.7750629 C8.04369951,29.8045198 8.10476478,29.8863734 8.21162901,30.0198418 C8.31822541,30.1535708 8.4451769,30.2917314 8.58926951,30.4319775 C8.73336213,30.5724842 8.8876323,30.7041278 9.04699123,30.8219553 C9.20635017,30.9400435 9.36383429,31 9.51622964,31 C9.51622964,30.658248 9.43936239,30.3089363 9.2875027,29.9528469 C9.13564301,29.5972789 8.95941077,29.2359759 8.7614843,28.8723268 C8.56302216,28.508417 8.3634887,28.147896 8.16583006,27.7918066 C7.96817141,27.4362386 7.83023889,27.0778031 7.7539073,26.7227564 C7.52705516,25.6683043 7.37519547,24.5458146 7.30743445,23.3584155 C7.23940559,22.1710164 7.20458767,21.0706845 7.20458767,20.0608087 C7.20458767,18.8431707 7.21985399,17.7102538 7.25038663,16.6631007 C7.28065143,15.6162083 7.39608622,14.6125889 7.59374487,13.6553705 C7.79113569,12.6981522 8.10208648,11.7612669 8.52097283,10.8481036 C8.93959134,9.93598292 9.53926304,9.00274717 10.3175774,8.05230652 L10.3175774,7.69595645 C10.3023111,7.69595645 10.2565122,7.70299482 10.1801806,7.7178536 C10.1041168,7.73271238 10.0583179,7.75513089 10.0430515,7.78484845 C10.0125189,7.81456602 9.93190203,7.87843271 9.8028079,7.97436309 C9.6739816,8.07003279 9.5309603,8.1787365 9.37936844,8.29734607 C9.22777658,8.41595564 9.07672038,8.53195841 8.93289559,8.64248689 C8.78853514,8.75301537 8.67363601,8.83721513 8.60078621,8.89899638 C7.83586332,9.5483512 7.17003758,10.3097986 6.5979524,11.1713472 C6.02559938,12.0326352 5.5477904,12.954401 5.16720377,13.9340378 C4.78608147,14.9136747 4.49548577,15.9170335 4.29755929,16.941768 C4.09909715,17.9662419 4,18.9617802 4,19.926819 L4,19.926819 Z" id="Fill-1" fill="#5A6F7E"></path>
                <path d="M21,34.4998615 C21,35.3284409 20.3287178,36 19.5001385,36 C18.6718361,36 18,35.3284409 18,34.4998615 C18,33.6715591 18.6718361,33 19.5001385,33 C20.3287178,33 21,33.6715591 21,34.4998615" id="Fill-2" fill="#5A6F7E"></path>
                <path d="M21,5.5 C21,6.32822596 20.3287178,7 19.5001385,7 C18.6718361,7 18,6.32822596 18,5.5 C18,4.67149714 18.6718361,4 19.5001385,4 C20.3287178,4 21,4.67149714 21,5.5" id="Fill-3" fill="#5A6F7E"></path>
                <path d="M39,19.4998654 C39,30.269581 30.2693118,39 19.4998654,39 C8.73041899,39 0,30.269581 0,19.4998654 C0,8.73041899 8.73041899,0 19.4998654,0 C30.2693118,0 39,8.73041899 39,19.4998654 Z" id="Stroke-4" stroke="#5A6F7E" stroke-width="2"></path>
            </g>
        </g>
    </g>
</svg>